<svg width="93" height="41" viewBox="0 0 93 41" fill="none" xmlns="http://www.w3.org/2000/svg">
<g clip-path="url(#clip0_116_524)">
<path fill-rule="evenodd" clip-rule="evenodd" d="M28.0939 19.4958H16.5045L18.7933 17.2071C19.1838 16.8166 19.1838 16.1834 18.7933 15.7929C18.4027 15.4024 17.7696 15.4024 17.379 15.7929L13.3866 19.7853C13.1909 19.981 13.0933 20.2376 13.0938 20.4941C13.0933 20.7506 13.191 21.0072 13.3866 21.2029L17.3866 25.2029C17.7771 25.5934 18.4103 25.5934 18.8008 25.2029C19.1914 24.8124 19.1914 24.1792 18.8008 23.7887L16.508 21.4958H28.0939C28.6462 21.4958 29.0939 21.0481 29.0939 20.4958C29.0939 19.9435 28.6462 19.4958 28.0939 19.4958Z" fill="#292D34"/>
</g>
<rect x="1.09375" y="0.5" width="40" height="40" rx="20" stroke="#292D34" stroke-opacity="0.25"/>
<g clip-path="url(#clip1_116_524)">
<path fill-rule="evenodd" clip-rule="evenodd" d="M65.5426 19.2283H76.0784L73.9977 17.1476C73.6427 16.7926 73.6427 16.217 73.9977 15.862C74.3527 15.5069 74.9284 15.5069 75.2834 15.862L78.9128 19.4914C79.0907 19.6693 79.1794 19.9026 79.1791 20.1358C79.1794 20.369 79.0907 20.6023 78.9128 20.7802L75.2764 24.4165C74.9214 24.7715 74.3458 24.7715 73.9908 24.4165C73.6358 24.0615 73.6358 23.4859 73.9908 23.1309L76.0753 21.0465H65.5426C65.0406 21.0465 64.6335 20.6394 64.6335 20.1374C64.6335 19.6353 65.0406 19.2283 65.5426 19.2283Z" fill="#292D34"/>
</g>
<rect x="51.9062" y="0.5" width="40" height="40" rx="20" stroke="#292D34"/>
<defs>
<clipPath id="clip0_116_524">
<rect width="16" height="10" fill="white" transform="translate(13.0938 15.5)"/>
</clipPath>
<clipPath id="clip1_116_524">
<rect width="14.5455" height="10" fill="white" transform="translate(64.6335 15.5)"/>
</clipPath>
</defs>
</svg>
