<svg width="70" height="70" viewBox="0 0 70 70" fill="none" xmlns="http://www.w3.org/2000/svg">
<path d="M25.7253 10.9076C25.5505 10.8007 25.4097 10.6462 25.3196 10.4623C25.2294 10.2783 25.1935 10.0724 25.2162 9.86875C25.2388 9.66512 25.319 9.47214 25.4473 9.31243C25.5757 9.15273 25.7469 9.0329 25.9409 8.967C29.8693 7.60801 34.0513 7.14236 38.1824 7.60396C42.3135 8.06556 46.2897 9.44279 49.8212 11.6353C49.9526 11.7138 50.0658 11.8192 50.1533 11.9448C50.2407 12.0703 50.3005 12.2131 50.3285 12.3635C50.3566 12.5139 50.3523 12.6686 50.3159 12.8172C50.2796 12.9659 50.212 13.1051 50.1177 13.2256C46.984 17.2022 43.1582 20.5805 38.8244 23.1982C35.3171 18.2725 30.8642 14.0944 25.7253 10.9076ZM34.9701 25.2196C31.0239 19.8579 25.8475 15.5227 19.8765 12.5787C19.7002 12.4988 19.5067 12.4644 19.3137 12.4785C19.1206 12.4926 18.9342 12.5549 18.7714 12.6596C13.9402 16.1392 10.3282 21.0527 8.44843 26.702C8.40395 26.8454 8.38991 26.9965 8.40721 27.1457C8.42451 27.2948 8.47276 27.4387 8.54888 27.5681C8.625 27.6975 8.72731 27.8096 8.84925 27.8971C8.97119 27.9847 9.11008 28.0458 9.25702 28.0766C12.0736 28.6845 14.9467 28.9916 17.8281 28.993C23.7489 29.0005 29.5997 27.7126 34.9701 25.2196ZM62.9473 32.4161C62.2579 26.1642 59.4859 20.3259 55.077 15.84C54.9682 15.734 54.8386 15.6515 54.6965 15.5978C54.5543 15.5442 54.4026 15.5204 54.2508 15.5279C54.0991 15.5355 53.9505 15.5743 53.8144 15.642C53.6783 15.7096 53.5576 15.8045 53.4599 15.9209C50.0515 20.2705 45.8772 23.9607 41.1424 26.8099C42.6193 29.3727 43.8468 32.0714 44.808 34.8688C48.6654 33.8257 52.6444 33.3 56.6403 33.3055C58.3515 33.3095 60.0612 33.4085 61.7614 33.602C61.9213 33.619 62.0829 33.6 62.2346 33.5464C62.3862 33.4928 62.5239 33.406 62.6376 33.2922C62.7513 33.1785 62.8381 33.0408 62.8917 32.8892C62.9453 32.7376 62.9643 32.576 62.9473 32.4161ZM45.9939 39.0195C46.7858 42.4216 47.1837 45.9034 47.1798 49.3964C47.1778 52.7333 46.8072 56.0597 46.0748 59.3151C46.0267 59.5153 46.037 59.7251 46.1044 59.9196C46.1718 60.1141 46.2935 60.2853 46.4551 60.4128C46.6167 60.5404 46.8114 60.619 47.0162 60.6394C47.2211 60.6598 47.4275 60.6212 47.6111 60.528C51.7009 58.4824 55.2288 55.4681 57.8877 51.7477C60.5465 48.0272 62.2557 43.7132 62.8664 39.1813C62.8853 39.0395 62.8757 38.8954 62.8384 38.7574C62.801 38.6194 62.7365 38.4902 62.6487 38.3773C62.561 38.2644 62.4516 38.1701 62.327 38.0999C62.2024 38.0297 62.0651 37.985 61.9231 37.9684C60.1724 37.7292 58.4072 37.6121 56.6403 37.618C53.0452 37.6135 49.4653 38.0848 45.9939 39.0195ZM40.6842 36.2164C39.83 33.6624 38.7098 31.2051 37.342 28.8852C31.2507 31.8023 24.5818 33.3129 17.8281 33.3055C14.6662 33.3038 11.5134 32.9695 8.42148 32.3083C8.27171 32.2772 8.11704 32.2783 7.96775 32.3116C7.81846 32.3449 7.67797 32.4096 7.5556 32.5014C7.43323 32.5932 7.3318 32.7099 7.25803 32.8439C7.18426 32.9779 7.13984 33.1261 7.12774 33.2786C7.07383 33.9973 7.04688 34.725 7.04688 35.4618C7.04551 39.2996 7.83453 43.0966 9.36478 46.6162C10.895 50.1358 13.1337 53.3025 15.9414 55.919C16.0571 56.0302 16.1966 56.1133 16.3494 56.1621C16.5022 56.211 16.6642 56.2242 16.8229 56.2008C16.9816 56.1774 17.1328 56.1179 17.265 56.0271C17.3972 55.9362 17.5068 55.8163 17.5855 55.6765C22.8445 46.7488 30.9933 39.8836 40.6842 36.2164ZM20.9816 58.4257C20.9096 58.5493 20.863 58.6859 20.8444 58.8277C20.8259 58.9695 20.8357 59.1136 20.8733 59.2515C20.9109 59.3895 20.9756 59.5186 21.0636 59.6313C21.1516 59.744 21.2611 59.8381 21.3858 59.9081C25.563 62.267 30.2807 63.5022 35.0779 63.4928C36.7139 63.5 38.3471 63.3556 39.9564 63.0616C40.1427 63.0307 40.3168 62.9488 40.4595 62.8252C40.6022 62.7015 40.7079 62.5408 40.765 62.3608C42.1631 58.1817 42.8731 53.8032 42.8674 49.3964C42.8658 46.3593 42.5314 43.3315 41.8701 40.3672C33.0413 43.8113 25.6658 50.1875 20.9816 58.4257Z" fill="#242A41"/>
</svg>
