<svg width="56" height="57" viewBox="0 0 56 57" fill="none" xmlns="http://www.w3.org/2000/svg">
<path d="M12.1615 17.4152C14.9408 17.4152 17.1939 15.1622 17.1939 12.3829C17.1939 9.60356 14.9408 7.35049 12.1615 7.35049C9.38222 7.35049 7.12915 9.60356 7.12915 12.3829C7.12915 15.1622 9.38222 17.4152 12.1615 17.4152Z" fill="#242A41"/>
<path d="M21.9456 21.2286V49.1482H30.6142V35.3413C30.6142 31.6982 31.2996 28.17 35.8168 28.17C40.2719 28.17 40.3271 32.3353 40.3271 35.5713V49.1505H49.0003V33.8395C49.0003 26.3185 47.3811 20.5386 38.5906 20.5386C34.3701 20.5386 31.5411 22.8547 30.3842 25.0466H30.2669V21.2286H21.9456ZM7.81909 21.2286H16.5015V49.1482H7.81909V21.2286Z" fill="#242A41"/>
</svg>
