<svg width="1728" height="627" viewBox="0 0 1728 627" fill="none" xmlns="http://www.w3.org/2000/svg">
<path d="M-140 425.829C-117.501 425.829 53.4914 620.767 279.767 620.767C594.11 620.767 763.359 -89.3728 1206.08 109.137C1557.07 266.512 1711.35 283.35 1775.63 173.9" stroke="#D3D5D6"/>
<path d="M-140 257.445C-120.072 272.34 53.4914 620.767 279.767 620.767C594.11 620.767 814.785 -11.6568 1257.51 186.853C1608.49 344.228 1663.78 318.97 1775.63 238.663" stroke="#D3D5D6"/>
<path d="M-140 529.451C-117.501 529.451 53.4914 625.948 279.767 625.948C594.11 625.948 767.03 -205.276 1180.37 49.5542C1481.86 235.425 1659.92 309.255 1775.63 225.711" stroke="#D3D5D6"/>
</svg>
