<svg width="33" height="33" viewBox="0 0 33 33" fill="none" xmlns="http://www.w3.org/2000/svg">
<g clip-path="url(#clip0_116_366)">
<path d="M26.5281 4.90479H6.12813C5.12813 4.90479 4.32812 5.70478 4.32812 6.60478V27.1048C4.32812 28.0048 5.12813 28.8048 6.12813 28.8048H26.5281C27.5281 28.8048 28.3281 28.0048 28.3281 27.1048V6.60478C28.3281 5.70478 27.5281 4.90479 26.5281 4.90479ZM11.4281 25.3048H7.92812V13.9048H11.4281V25.3048ZM9.72812 12.3048C8.62812 12.3048 7.62813 11.4048 7.62813 10.2048C7.62813 9.00479 8.52812 8.10478 9.72812 8.10478C10.8281 8.10478 11.8281 9.00479 11.8281 10.2048C11.8281 11.4048 10.8281 12.3048 9.72812 12.3048ZM24.8281 25.2048H21.3281V19.6048C21.3281 18.3048 21.3281 16.5048 19.4281 16.5048C17.5281 16.5048 17.3281 18.0048 17.3281 19.4048V25.1048H13.8281V13.9048H17.1281V15.4048H17.2281C17.7281 14.5048 18.9281 13.5048 20.6281 13.5048C24.2281 13.5048 24.9281 15.9048 24.9281 19.0048V25.2048H24.8281Z" fill="white"/>
</g>
<defs>
<clipPath id="clip0_116_366">
<rect width="32" height="32" fill="white" transform="translate(0.328125 0.904785)"/>
</clipPath>
</defs>
</svg>
