<svg width="33" height="33" viewBox="0 0 33 33" fill="none" xmlns="http://www.w3.org/2000/svg">
<g clip-path="url(#clip0_116_371)">
<path d="M26.7531 14.2916C26.3053 12.0219 25.0833 9.97809 23.2959 8.50928C21.5085 7.04046 19.2666 6.23776 16.9531 6.23828C13.0998 6.23828 9.75313 8.42495 8.08646 11.6249C6.12677 11.8367 4.31447 12.7652 2.99778 14.232C1.68109 15.6989 0.952896 17.6005 0.953125 19.5716C0.953125 23.9849 4.53979 27.5716 8.95312 27.5716H26.2865C29.9665 27.5716 32.9531 24.5849 32.9531 20.9049C32.9531 17.3849 30.2198 14.5316 26.7531 14.2916ZM23.6198 18.2383L16.9531 24.9049L10.2865 18.2383H14.2865V12.9049H19.6198V18.2383H23.6198Z" fill="white"/>
</g>
<defs>
<clipPath id="clip0_116_371">
<rect width="32" height="32" fill="white" transform="translate(0.953125 0.904785)"/>
</clipPath>
</defs>
</svg>
