<svg width="32" height="33" viewBox="0 0 32 33" fill="none" xmlns="http://www.w3.org/2000/svg">
<g clip-path="url(#clip0_116_419)">
<path d="M10.8267 12.6115L16 17.7849L21.1734 12.6115C21.2968 12.4881 21.4434 12.3902 21.6047 12.3234C21.7659 12.2566 21.9388 12.2222 22.1134 12.2222C22.288 12.2222 22.4608 12.2566 22.6221 12.3234C22.7834 12.3902 22.9299 12.4881 23.0534 12.6115C23.1768 12.735 23.2747 12.8815 23.3416 13.0428C23.4084 13.2041 23.4427 13.377 23.4427 13.5515C23.4427 13.7261 23.4084 13.899 23.3416 14.0603C23.2747 14.2215 23.1768 14.3681 23.0534 14.4915L16.9334 20.6115C16.81 20.7351 16.6635 20.8332 16.5022 20.9001C16.3409 20.967 16.168 21.0015 15.9934 21.0015C15.8188 21.0015 15.6458 20.967 15.4845 20.9001C15.3233 20.8332 15.1767 20.7351 15.0534 20.6115L8.93338 14.4915C8.80978 14.3682 8.71171 14.2217 8.64481 14.0604C8.5779 13.8991 8.54346 13.7262 8.54346 13.5515C8.54346 13.3769 8.5779 13.204 8.64481 13.0427C8.71171 12.8814 8.80978 12.7349 8.93338 12.6115C9.45338 12.1049 10.3067 12.0915 10.8267 12.6115Z" fill="#242A41"/>
</g>
<defs>
<clipPath id="clip0_116_419">
<rect width="32" height="32" fill="white" transform="translate(0 0.225098)"/>
</clipPath>
</defs>
</svg>
