<svg width="32" height="32" viewBox="0 0 32 32" fill="none" xmlns="http://www.w3.org/2000/svg">
<g clip-path="url(#clip0_116_412)">
<path d="M10.8267 12.3864L16 17.5598L21.1734 12.3864C21.2968 12.263 21.4434 12.1651 21.6047 12.0983C21.7659 12.0315 21.9388 11.9971 22.1134 11.9971C22.288 11.9971 22.4608 12.0315 22.6221 12.0983C22.7834 12.1651 22.9299 12.263 23.0534 12.3864C23.1768 12.5099 23.2747 12.6564 23.3416 12.8177C23.4084 12.979 23.4427 13.1519 23.4427 13.3264C23.4427 13.501 23.4084 13.6739 23.3416 13.8352C23.2747 13.9964 23.1768 14.143 23.0534 14.2664L16.9334 20.3864C16.81 20.51 16.6635 20.6081 16.5022 20.675C16.3409 20.7419 16.168 20.7764 15.9934 20.7764C15.8188 20.7764 15.6458 20.7419 15.4845 20.675C15.3233 20.6081 15.1767 20.51 15.0534 20.3864L8.93338 14.2664C8.80978 14.1431 8.71171 13.9966 8.64481 13.8353C8.5779 13.674 8.54346 13.5011 8.54346 13.3264C8.54346 13.1518 8.5779 12.9789 8.64481 12.8176C8.71171 12.6563 8.80978 12.5098 8.93338 12.3864C9.45338 11.8798 10.3067 11.8664 10.8267 12.3864Z" fill="#242A41"/>
</g>
<defs>
<clipPath id="clip0_116_412">
<rect width="32" height="32" fill="white"/>
</clipPath>
</defs>
</svg>
