<svg width="56" height="39" viewBox="0 0 56 39" fill="none" xmlns="http://www.w3.org/2000/svg">
<path d="M41.5201 12.1331L41.5203 12.1332L41.5215 12.1296C43.5738 6.65862 47.4198 1.66615 54.5486 1.33883L43.5981 28.2099C43.5978 28.2107 43.5975 28.2115 43.5971 28.2123C42.458 30.9283 40.8422 33.4987 38.5544 35.388C36.3597 37.2004 33.525 38.4045 29.8405 38.4918L29.7564 37.91L29.369 35.2286C29.0483 33.0072 28.6203 30.0399 28.1912 27.0561C27.7621 24.0722 27.332 21.0721 27.007 18.785C26.8445 17.6413 26.7083 16.6764 26.6117 15.9811C26.5634 15.6333 26.5251 15.3537 26.4984 15.1531C26.485 15.0527 26.4747 14.9731 26.4675 14.915C26.4594 14.85 26.4572 14.8271 26.4573 14.8284L25.4866 14.6953C25.3911 14.9673 24.145 18.1991 22.9154 21.3814C22.3022 22.9684 21.6952 24.5379 21.2414 25.7106L20.6942 27.1247L20.5413 27.5196L20.5011 27.6236L20.4908 27.6502L20.4884 27.6565L20.4882 27.6569L20.4878 27.6579C18.309 33.1895 14.2482 38.2737 6.82235 38.4921L0.691992 1.33841C5.56357 1.6465 11.2709 5.69831 11.7031 12.1433L11.7035 12.1508L11.7052 12.1809L11.7119 12.2982L11.7371 12.7445L11.8274 14.3459C11.9024 15.6758 12.0026 17.4605 12.104 19.2794C12.307 22.9232 12.5134 26.6881 12.5304 27.2276L13.4965 27.3921L19.396 12.1271L19.396 12.1271L19.3976 12.1228C21.4806 6.58506 25.3145 1.49858 32.3512 1.29586C33.4799 9.94285 34.5984 18.5912 35.7065 27.2409L36.6793 27.3277C36.8619 26.7491 38.0719 22.9512 39.2367 19.2965L40.8153 14.3446L41.3273 12.7386L41.47 12.2911L41.5075 12.1735L41.5171 12.1434L41.5195 12.1358L41.5201 12.1338L41.5203 12.1334C41.5203 12.1334 41.5203 12.1334 41.5201 12.1333C41.5201 12.1332 41.5201 12.1332 41.5201 12.1331Z" fill="#242A41" stroke="#242A41"/>
</svg>
